<?xml version="1.0" encoding="UTF-8" standalone="no" ?>
<!DOCTYPE svg PUBLIC "-//W3C//DTD SVG 1.1//EN" "http://www.w3.org/Graphics/SVG/1.1/DTD/svg11.dtd">
<svg xmlns="http://www.w3.org/2000/svg" xmlns:xlink="http://www.w3.org/1999/xlink" version="1.1" width="1280" height="1024" viewBox="0 0 1280 1024" xml:space="preserve">
<desc>Created with Fabric.js 5.3.0</desc>
<defs>
</defs>
<g transform="matrix(1 0 0 1 640 512)" id="background-logo"  >
<rect style="stroke: none; stroke-width: 0; stroke-dasharray: none; stroke-linecap: butt; stroke-dashoffset: 0; stroke-linejoin: miter; stroke-miterlimit: 4; fill: rgb(255,255,255); fill-opacity: 0; fill-rule: nonzero; opacity: 1;"  paint-order="stroke"  x="-640" y="-512" rx="0" ry="0" width="1280" height="1024" />
</g>
<g transform="matrix(1.9211538461538462 0 0 1.9211538461538462 640 413.2943946567299)" id="logo-logo"  >
<g style=""  paint-order="stroke"   >
		<g transform="matrix(0.26720657637414363 0 0 0.26720657637414363 0 0)"  >
<path style="stroke: none; stroke-width: 1; stroke-dasharray: none; stroke-linecap: butt; stroke-dashoffset: 0; stroke-linejoin: miter; stroke-miterlimit: 4; fill: rgb(255,145,77); fill-rule: nonzero; opacity: 1;"  paint-order="stroke"  transform=" translate(-500.01194127429693, -500.0329125097867)" d="M 491 875.6 C 32.7 984.9 -9.7 647.3 168.1 445 C 301.79999999999995 292.9 459.9 212.1 530.1 181.39999999999998 L 482.20000000000005 103.19999999999997 L 929.3000000000001 110.69999999999997 L 687.8000000000001 439.09999999999997 L 635.2 353.09999999999997 C 7.8 685.4 281.9 882 491 875.6 Z" stroke-linecap="round" />
</g>
		<g transform="matrix(0.26720657637414363 0 0 0.26720657637414363 -31.205636162043845 38.17600497097479)"  >
<path style="stroke: none; stroke-width: 1; stroke-dasharray: none; stroke-linecap: butt; stroke-dashoffset: 0; stroke-linejoin: miter; stroke-miterlimit: 4; fill: rgb(55,182,255); fill-rule: nonzero; opacity: 1;"  paint-order="stroke"  transform=" translate(-383.227255113169, -642.9036662502208)" d="M 491 875.6 C 491 875.6 244.5 906.8000000000001 229.3 734.6 C 218.9 616.7 358.5 497.1 537.7 408 C 57.400000000000034 715.1 308.30000000000007 876.4 491.1 875.6 Z" stroke-linecap="round" />
</g>
		<g transform="matrix(0.26720657637414363 0 0 0.26720657637414363 14.492765981274829 66.6726066951075)"  >
<path style="stroke: none; stroke-width: 1; stroke-dasharray: none; stroke-linecap: butt; stroke-dashoffset: 0; stroke-linejoin: miter; stroke-miterlimit: 4; fill: rgb(55,182,255); fill-rule: nonzero; opacity: 1;"  paint-order="stroke"  transform=" translate(-554.25, -749.55)" d="M 734.2 653.2 C 725.7 661.4000000000001 718.4000000000001 670.4000000000001 711.7 679.9000000000001 C 713.6 682.4000000000001 714.8000000000001 685.5000000000001 714.8000000000001 688.8000000000001 C 714.8000000000001 696.8000000000001 708.3000000000001 703.2 700.4000000000001 703.2 C 692.5000000000001 703.2 698.0000000000001 703 696.8000000000001 702.7 C 691.1 712 685.5000000000001 721.4000000000001 679.5000000000001 730.5 C 676.0000000000001 736 670.5000000000001 744 666.7000000000002 749.5 C 638.2000000000002 790.6 600.7000000000002 825.7 556.6000000000001 849.4 C 539.8000000000002 858.3 522.1000000000001 866.1999999999999 503.60000000000014 870.6999999999999 C 560.1000000000001 842.0999999999999 609.7000000000002 799.9 647.6000000000001 749.4999999999999 C 660.4000000000001 732.4999999999999 674.4000000000001 711.6999999999999 686.7000000000002 694.2999999999998 C 686.7000000000002 694.1999999999998 686.9000000000002 693.9999999999999 687.0000000000001 693.8999999999999 C 686.3000000000001 692.2999999999998 686.0000000000001 690.4999999999999 686.0000000000001 688.5999999999999 C 686.0000000000001 680.5999999999999 692.5000000000001 674.1999999999999 700.4000000000001 674.1999999999999 C 708.3000000000001 674.1999999999999 701.5000000000001 674.1999999999999 702.0000000000001 674.1999999999999 C 719.1000000000001 654.0999999999999 739.1000000000001 637.9999999999999 765.0000000000001 628.4 C 754.2000000000002 635.8 743.5000000000001 643.6 734.2000000000002 652.9 Z M 545.1 818.7 C 547.2 819.8000000000001 549.5 820.5 552 820.5 C 560 820.5 566.4 814 566.4 806.1 C 566.4 798.2 566.1999999999999 803.5 565.9 802.2 C 572.6 796.3000000000001 579.1 790.1 585.1999999999999 783.5 C 610.6999999999999 756.7 630.0999999999999 724.2 650.0999999999999 693.3 C 659.9999999999999 678.0999999999999 670.8 663.6999999999999 683.5999999999999 650.8 C 691.3 643 699.5999999999999 635.8 708.0999999999999 628.6999999999999 C 701.4999999999999 632.0999999999999 695.0999999999999 635.8 688.8 639.8 C 657.0999999999999 660 635.5 692 614.3 722 C 605.8 733.7 597.3 745.6 588.0999999999999 756.8 C 585.8 759.5 579.9999999999999 766.5 577.8 769.1999999999999 C 575.4 771.6999999999999 569.1999999999999 778.4 566.8 780.9999999999999 C 563.5 784.4999999999999 559.0999999999999 788.4999999999999 555.5999999999999 791.9999999999999 C 554.4999999999999 791.6999999999999 553.3 791.4999999999999 551.9999999999999 791.4999999999999 C 543.9999999999999 791.4999999999999 537.5999999999999 797.9999999999999 537.5999999999999 805.8999999999999 C 537.5999999999999 813.7999999999998 537.5999999999999 807.0999999999999 537.6999999999999 807.6999999999998 C 536.6999999999999 808.4999999999998 535.6999999999999 809.1999999999998 534.9 809.8999999999999 C 526.1 817.1999999999998 516 824.1999999999998 506.4 830.4999999999999 C 488.59999999999997 841.5999999999999 470 851.4999999999999 450.2 858.2999999999998 C 468.7 856.2999999999998 486.7 850.1999999999998 503.59999999999997 842.5999999999998 C 518.1999999999999 835.9999999999998 532 827.8999999999997 545.0999999999999 818.5999999999998 Z M 547.2 765.4 C 556 754.8 564.1 743.6 571.8000000000001 732.1999999999999 C 571.8000000000001 732.1999999999999 571.8000000000001 732.1999999999999 571.8000000000001 732.1999999999999 C 579.8000000000001 732.1999999999999 586.2 725.6999999999999 586.2 717.8 C 586.2 709.9 585.8000000000001 713.9 585.1 712.1999999999999 C 598.7 691.4 612.3000000000001 670.6999999999999 628.8000000000001 652.1999999999999 C 635.8000000000001 644.0999999999999 643.5000000000001 636.4 651.0000000000001 628.8 C 626.1000000000001 643.9 604.7000000000002 664.4 586.9000000000001 687.3 C 582.7 692.6999999999999 578.6000000000001 698.1999999999999 574.5000000000001 703.5999999999999 C 573.6000000000001 703.3999999999999 572.7000000000002 703.3 571.7000000000002 703.3 C 563.7000000000002 703.3 557.3000000000002 709.8 557.3000000000002 717.6999999999999 C 557.3000000000002 725.5999999999999 557.9000000000002 722.4999999999999 559.0000000000002 724.5999999999999 C 547.1000000000003 740.6999999999999 535.0000000000002 756.5999999999999 521.4000000000002 771.3 C 488.0000000000002 807 445.3000000000002 836.3 396.8000000000002 845.9 C 411.3000000000002 846.6999999999999 426.00000000000017 844 440.00000000000017 840 C 482.6000000000002 827.5 519.3000000000002 799.3 547.2000000000002 765.3 Z M 443.1 815.3 C 451.1 815.3 457.5 808.8 457.5 800.9 C 457.5 793 457.5 800.4 457.5 800.1999999999999 C 468.1 791.9999999999999 478 782.6999999999999 486.9 772.8 C 521.5 734.9 544.6999999999999 688.5999999999999 577.1999999999999 649.0999999999999 C 582.6999999999999 642.1999999999999 588.4 635.5999999999999 594.0999999999999 628.8 C 588.4999999999999 632.9 582.6999999999999 637.5 577.4999999999999 642 C 539.3999999999999 673.9 514.0999999999999 717.4 482.1999999999999 754.7 C 472.39999999999986 766.5 461.4999999999999 777.8000000000001 449.59999999999985 788 C 447.59999999999985 787 445.39999999999986 786.4 443.09999999999985 786.4 C 435.09999999999985 786.4 428.6999999999999 792.9 428.6999999999999 800.8 C 428.6999999999999 808.6999999999999 428.7999999999999 802.8 428.9999999999999 803.8 C 403.5999999999999 821.0999999999999 374.6999999999999 832.5999999999999 343.4999999999999 833.5 C 357.39999999999986 836.8 372.1999999999999 836 386.1999999999999 833.5 C 404.2999999999999 830.1 421.39999999999986 823.2 437.09999999999985 814 C 438.89999999999986 814.8 440.99999999999983 815.3 443.09999999999985 815.3 Z" stroke-linecap="round" />
</g>
</g>
</g>
<g transform="matrix(1.9211538461538462 0 0 1.9211538461538462 640.9581754807693 705.8474001718365)" id="text-logo"  >
<g style=""  paint-order="stroke"   >
		<g transform="matrix(1 0 0 1 -5.684342e-14 0)" id="text-logo-path-0"  >
<path style="stroke: none; stroke-width: 0; stroke-dasharray: none; stroke-linecap: butt; stroke-dashoffset: 0; stroke-linejoin: miter; stroke-miterlimit: 4; fill: rgb(0,0,0); fill-rule: nonzero; opacity: 1;"  paint-order="stroke"  transform=" translate(-165.155, 20.38)" d="M 27.3 -11 L 27.3 -11 C 27.3 -7.41 26.11 -4.56 23.66 -2.51 C 21.2 -0.46 17.78 0.57 13.4 0.57 L 13.4 0.57 C 9.01 0.57 5.42 -0.11 2.62 -1.54 L 2.62 -1.54 L 2.62 -7.35 C 4.16 -6.67 5.87 -6.04 7.81 -5.53 C 9.75 -4.96 11.69 -4.67 13.68 -4.67 L 13.68 -4.67 C 16.13 -4.67 18.01 -5.19 19.27 -6.27 C 20.46 -7.35 21.09 -8.78 21.09 -10.54 L 21.09 -10.54 C 21.09 -11.8 20.8 -12.83 20.29 -13.74 C 19.72 -14.59 18.81 -15.39 17.61 -16.13 C 16.36 -16.87 14.71 -17.61 12.65 -18.41 L 12.65 -18.41 C 10.72 -19.21 9.06 -20.12 7.64 -21.15 C 6.21 -22.17 5.07 -23.43 4.28 -24.97 C 3.48 -26.51 3.08 -28.33 3.08 -30.55 L 3.08 -30.55 C 3.08 -33.91 4.28 -36.54 6.61 -38.42 C 8.95 -40.3 11.97 -41.27 15.79 -41.27 L 15.79 -41.27 C 17.9 -41.27 19.84 -41.04 21.66 -40.58 C 23.48 -40.13 25.19 -39.56 26.73 -38.82 L 26.73 -38.82 L 24.74 -33.74 C 23.31 -34.37 21.77 -34.94 20.23 -35.34 C 18.7 -35.74 17.16 -35.97 15.62 -35.97 L 15.62 -35.97 C 13.51 -35.97 11.97 -35.45 10.94 -34.48 C 9.86 -33.52 9.35 -32.2 9.35 -30.61 L 9.35 -30.61 C 9.35 -29.36 9.63 -28.33 10.15 -27.47 C 10.66 -26.62 11.51 -25.88 12.71 -25.19 C 13.91 -24.45 15.45 -23.71 17.39 -22.86 L 17.39 -22.86 C 19.49 -21.95 21.32 -20.98 22.8 -20.01 C 24.28 -18.98 25.42 -17.78 26.16 -16.36 C 26.9 -14.93 27.3 -13.11 27.3 -11 Z M 37.51 -40.7 L 48.51 -40.7 C 53.47 -40.7 57.11 -39.62 59.45 -37.51 C 61.73 -35.34 62.87 -32.32 62.87 -28.5 L 62.87 -28.5 C 62.87 -26.22 62.42 -24.11 61.5 -22.12 C 60.53 -20.12 59 -18.53 56.83 -17.33 C 54.61 -16.07 51.64 -15.45 47.82 -15.45 L 47.82 -15.45 L 43.83 -15.45 L 43.83 0 L 37.51 0 L 37.51 -40.7 Z M 48.17 -35.51 L 48.17 -35.51 L 43.83 -35.51 L 43.83 -20.63 L 47.2 -20.63 C 50.22 -20.63 52.5 -21.2 54.09 -22.4 C 55.63 -23.54 56.43 -25.48 56.43 -28.27 L 56.43 -28.27 C 56.43 -30.72 55.75 -32.55 54.44 -33.74 C 53.12 -34.94 51.02 -35.51 48.17 -35.51 Z M 107.27 -20.41 L 107.27 -20.41 C 107.27 -16.19 106.59 -12.54 105.28 -9.41 C 103.97 -6.27 101.97 -3.82 99.29 -2.05 C 96.62 -0.29 93.31 0.57 89.38 0.57 L 89.38 0.57 C 85.33 0.57 81.97 -0.29 79.29 -2.05 C 76.61 -3.82 74.67 -6.27 73.36 -9.41 C 72.05 -12.54 71.42 -16.25 71.42 -20.46 L 71.42 -20.46 C 71.42 -24.62 72.05 -28.27 73.36 -31.46 C 74.67 -34.6 76.67 -36.99 79.34 -38.76 C 82.02 -40.47 85.39 -41.33 89.43 -41.33 L 89.43 -41.33 C 93.37 -41.33 96.67 -40.47 99.35 -38.76 C 101.97 -36.99 103.97 -34.6 105.28 -31.46 C 106.59 -28.33 107.27 -24.62 107.27 -20.41 Z M 78.09 -20.41 L 78.09 -20.41 C 78.09 -15.56 79 -11.69 80.83 -8.89 C 82.59 -6.1 85.44 -4.67 89.38 -4.67 L 89.38 -4.67 C 93.31 -4.67 96.22 -6.1 97.98 -8.89 C 99.75 -11.69 100.61 -15.56 100.61 -20.41 L 100.61 -20.41 C 100.61 -25.25 99.75 -29.07 97.98 -31.86 C 96.22 -34.66 93.37 -36.02 89.43 -36.02 L 89.43 -36.02 C 85.5 -36.02 82.65 -34.66 80.83 -31.86 C 79 -29.07 78.09 -25.25 78.09 -20.41 Z M 118.22 -40.7 L 129.22 -40.7 C 134.12 -40.7 137.77 -39.73 140.11 -37.79 C 142.44 -35.85 143.64 -32.89 143.64 -28.96 L 143.64 -28.96 C 143.64 -26.85 143.3 -25.14 142.61 -23.71 C 141.87 -22.29 140.96 -21.09 139.88 -20.18 C 138.74 -19.27 137.54 -18.58 136.23 -18.07 L 136.23 -18.07 L 147 0 L 139.82 0 L 130.76 -16.47 L 124.55 -16.47 L 124.55 0 L 118.22 0 L 118.22 -40.7 Z M 128.88 -35.45 L 128.88 -35.45 L 124.55 -35.45 L 124.55 -21.6 L 129.05 -21.6 C 131.84 -21.6 133.89 -22.23 135.2 -23.43 C 136.51 -24.62 137.2 -26.39 137.2 -28.73 L 137.2 -28.73 C 137.2 -31.18 136.51 -32.89 135.2 -33.91 C 133.84 -34.94 131.73 -35.45 128.88 -35.45 Z M 168.61 -35.4 L 168.61 0 L 162.34 0 L 162.34 -35.4 L 151.05 -35.4 L 151.05 -40.7 L 179.84 -40.7 L 179.84 -35.4 L 168.61 -35.4 Z M 210.79 -11 L 210.79 -11 C 210.79 -7.41 209.59 -4.56 207.14 -2.51 C 204.69 -0.46 201.27 0.57 196.88 0.57 L 196.88 0.57 C 192.49 0.57 188.9 -0.11 186.11 -1.54 L 186.11 -1.54 L 186.11 -7.35 C 187.64 -6.67 189.35 -6.04 191.29 -5.53 C 193.23 -4.96 195.17 -4.67 197.16 -4.67 L 197.16 -4.67 C 199.61 -4.67 201.5 -5.19 202.75 -6.27 C 203.95 -7.35 204.57 -8.78 204.57 -10.54 L 204.57 -10.54 C 204.57 -11.8 204.29 -12.83 203.78 -13.74 C 203.21 -14.59 202.29 -15.39 201.1 -16.13 C 199.84 -16.87 198.19 -17.61 196.14 -18.41 L 196.14 -18.41 C 194.2 -19.21 192.55 -20.12 191.12 -21.15 C 189.7 -22.17 188.56 -23.43 187.76 -24.97 C 186.96 -26.51 186.56 -28.33 186.56 -30.55 L 186.56 -30.55 C 186.56 -33.91 187.76 -36.54 190.09 -38.42 C 192.43 -40.3 195.45 -41.27 199.27 -41.27 L 199.27 -41.27 C 201.38 -41.27 203.32 -41.04 205.14 -40.58 C 206.97 -40.13 208.68 -39.56 210.22 -38.82 L 210.22 -38.82 L 208.22 -33.74 C 206.8 -34.37 205.26 -34.94 203.72 -35.34 C 202.18 -35.74 200.64 -35.97 199.1 -35.97 L 199.1 -35.97 C 196.99 -35.97 195.45 -35.45 194.43 -34.48 C 193.34 -33.52 192.83 -32.2 192.83 -30.61 L 192.83 -30.61 C 192.83 -29.36 193.12 -28.33 193.63 -27.47 C 194.14 -26.62 195 -25.88 196.19 -25.19 C 197.39 -24.45 198.93 -23.71 200.87 -22.86 L 200.87 -22.86 C 202.98 -21.95 204.8 -20.98 206.28 -20.01 C 207.77 -18.98 208.91 -17.78 209.65 -16.36 C 210.39 -14.93 210.79 -13.11 210.79 -11 Z M 222.87 -40.7 L 231.88 -21.66 L 240.94 -40.7 L 247.72 -40.7 L 235.07 -15.79 L 235.07 0 L 228.74 0 L 228.74 -15.56 L 216.03 -40.7 L 222.87 -40.7 Z M 287.51 -40.7 L 287.51 0 L 279.76 0 L 261 -32.89 L 260.77 -32.89 C 260.83 -31.35 260.95 -29.64 261.06 -27.7 C 261.17 -25.71 261.23 -23.71 261.29 -21.66 L 261.29 -21.66 L 261.29 0 L 255.53 0 L 255.53 -40.7 L 263.23 -40.7 L 281.92 -7.98 L 282.15 -7.98 C 282.09 -8.78 282.09 -9.8 282.04 -11 C 281.98 -12.2 281.92 -13.51 281.87 -14.93 C 281.81 -16.3 281.75 -17.61 281.75 -18.81 L 281.75 -18.81 L 281.75 -40.7 L 287.51 -40.7 Z M 316.81 -35.97 L 316.81 -35.97 C 313.16 -35.97 310.31 -34.6 308.2 -31.81 C 306.09 -29.01 305.06 -25.14 305.06 -20.29 L 305.06 -20.29 C 305.06 -15.45 306.03 -11.69 307.97 -8.89 C 309.91 -6.1 312.87 -4.73 316.81 -4.73 L 316.81 -4.73 C 318.46 -4.73 320.06 -4.9 321.59 -5.24 C 323.13 -5.53 324.67 -5.99 326.21 -6.5 L 326.21 -6.5 L 326.21 -1.2 C 324.67 -0.57 323.13 -0.17 321.59 0.11 C 320 0.4 318.17 0.57 316.07 0.57 L 316.07 0.57 C 312.13 0.57 308.83 -0.29 306.26 -2.05 C 303.64 -3.76 301.7 -6.21 300.45 -9.35 C 299.14 -12.48 298.51 -16.13 298.51 -20.35 L 298.51 -20.35 C 298.51 -24.45 299.19 -28.1 300.62 -31.24 C 302.04 -34.37 304.1 -36.82 306.83 -38.59 C 309.57 -40.36 312.93 -41.27 316.86 -41.27 L 316.86 -41.27 C 318.74 -41.27 320.68 -41.04 322.56 -40.64 C 324.44 -40.19 326.15 -39.56 327.69 -38.76 L 327.69 -38.76 L 325.47 -33.63 C 324.22 -34.26 322.85 -34.77 321.42 -35.28 C 320 -35.74 318.46 -35.97 316.81 -35.97 Z" stroke-linecap="round" />
</g>
</g>
</g>
<g transform="matrix(1.9211538461538462 0 0 1.9211538461538462 639.5901073427028 784.2852120457217)" id="tagline-b740d401-0647-41b0-a284-5fe07d956cef-logo"  >
<g style=""  paint-order="stroke"   >
		<g transform="matrix(1 0 0 1 0 0)" id="tagline-b740d401-0647-41b0-a284-5fe07d956cef-logo-path-0"  >
<linearGradient id="SVGID_552360" gradientUnits="userSpaceOnUse" gradientTransform="matrix(1 0 0 1 1.3499999999999943 -18.39)"  x1="-1.3702512359619163" y1="-5.349780000000067" x2="-1.3702512359619163" y2="25.650219999999933">
<stop offset="0%" style="stop-color:rgb(245,81,95);stop-opacity: 1"/>
<stop offset="100%" style="stop-color:rgb(159,4,27);stop-opacity: 1"/>
</linearGradient>
<path style="stroke: none; stroke-width: 0; stroke-dasharray: none; stroke-linecap: butt; stroke-dashoffset: 0; stroke-linejoin: miter; stroke-miterlimit: 4; fill: url(#SVGID_552360); fill-rule: nonzero; opacity: 1;"  paint-order="stroke"  transform=" translate(-106.975, 9.045)" d="M 3.4 -5.62 L 1.35 -4.86 C 2.62 -1.43 5.08 0.27 8.75 0.27 C 12.66 0.27 15.42 -1.97 15.42 -5 C 15.42 -7.16 14.07 -8.42 12.42 -9.02 C 11.58 -9.31 10.48 -9.64 9.1 -9.96 C 6.75 -10.5 5.64 -10.85 4.78 -11.69 C 4.32 -12.1 4.1 -12.66 4.1 -13.34 C 4.1 -15.2 5.97 -16.47 8.34 -16.47 C 10.8 -16.47 12.1 -15.47 13.15 -12.82 L 15.15 -13.63 C 13.88 -16.82 11.69 -18.36 8.34 -18.36 C 4.78 -18.36 1.94 -16.25 1.94 -13.34 C 1.94 -11.04 3.4 -9.69 5.1 -9.04 C 5.97 -8.69 7.1 -8.37 8.53 -8.02 C 10.72 -7.48 11.8 -7.21 12.64 -6.45 C 13.04 -6.08 13.26 -5.59 13.26 -5 C 13.26 -2.97 11.53 -1.62 8.75 -1.62 C 5.8 -1.62 4.35 -2.97 3.4 -5.62 Z M 46.22 -3.97 C 44.5 -1.38 41.58 0.3 38.31 0.3 C 34.88 0.3 31.86 -1.54 30.19 -4.4 C 29.35 -5.83 28.92 -7.37 28.92 -9.04 C 28.92 -12.39 30.67 -15.42 33.56 -17.12 C 34.99 -17.95 36.59 -18.39 38.31 -18.39 C 41.66 -18.39 44.63 -16.63 46.33 -13.9 L 44.5 -12.85 C 43.23 -15.01 40.91 -16.36 38.31 -16.36 C 35.72 -16.36 33.34 -14.96 32.05 -12.72 C 31.4 -11.61 31.08 -10.37 31.08 -9.04 C 31.08 -6.37 32.48 -4.02 34.7 -2.73 C 35.8 -2.08 36.99 -1.75 38.31 -1.75 C 40.8 -1.75 43.04 -3.02 44.36 -5.05 Z M 61.99 0 L 61.99 -8.1 L 72.79 -8.1 L 72.79 0 L 74.95 0 L 74.95 -18.09 L 72.79 -18.09 L 72.79 -9.99 L 61.99 -9.99 L 61.99 -18.09 L 59.83 -18.09 L 59.83 0 Z M 88.45 0 L 101.41 0 L 101.41 -1.89 L 90.61 -1.89 L 90.61 -8.1 L 99.79 -8.1 L 99.79 -9.99 L 90.61 -9.99 L 90.61 -16.2 L 101.41 -16.2 L 101.41 -18.09 L 88.45 -18.09 Z M 121.99 0 C 125.31 0 128.22 -1.75 129.84 -4.54 C 130.65 -5.91 131.06 -7.42 131.06 -9.04 C 131.06 -12.29 129.36 -15.23 126.58 -16.88 C 125.2 -17.68 123.66 -18.09 121.99 -18.09 L 114.91 -18.09 L 114.91 0 Z M 121.99 -1.92 L 117.07 -1.92 L 117.07 -16.2 L 121.99 -16.2 C 124.47 -16.2 126.74 -14.82 127.98 -12.64 C 128.6 -11.53 128.9 -10.34 128.9 -9.04 C 128.9 -5.08 125.85 -1.92 121.99 -1.92 Z M 157.52 -18.09 L 157.52 -7.34 C 157.52 -4.05 155.06 -1.75 152.15 -1.75 C 149.01 -1.75 146.72 -4.13 146.72 -7.34 L 146.72 -18.09 L 144.56 -18.09 L 144.56 -7.34 C 144.56 -4.56 146.04 -2.13 148.37 -0.76 C 149.53 -0.08 150.77 0.27 152.15 0.27 C 154.84 0.27 157.33 -1.22 158.68 -3.54 C 159.35 -4.7 159.68 -5.97 159.68 -7.34 L 159.68 -18.09 Z M 173.18 0 L 186.14 0 L 186.14 -1.89 L 175.34 -1.89 L 175.34 -18.09 L 173.18 -18.09 Z M 199.64 0 L 212.6 0 L 212.6 -1.89 L 201.8 -1.89 L 201.8 -8.1 L 210.98 -8.1 L 210.98 -9.99 L 201.8 -9.99 L 201.8 -16.2 L 212.6 -16.2 L 212.6 -18.09 L 199.64 -18.09 Z" stroke-linecap="round" />
</g>
</g>
</g>
</svg>